<svg xmlns="http://www.w3.org/2000/svg" width="34.359" height="34.359" viewBox="0 0 34.359 34.359">
  <g id="Group_153" data-name="Group 153" transform="translate(85.119 -103.038)">
    <g id="Group_150" data-name="Group 150" transform="translate(-84.869 103.288)">
      <path id="Path_6" data-name="Path 6" d="M-67.939,137.147a16.949,16.949,0,0,1-16.93-16.93,16.949,16.949,0,0,1,16.93-16.93,16.949,16.949,0,0,1,16.93,16.93A16.949,16.949,0,0,1-67.939,137.147Zm0-32.4A15.489,15.489,0,0,0-83.41,120.218a15.489,15.489,0,0,0,15.471,15.471,15.489,15.489,0,0,0,15.471-15.471A15.489,15.489,0,0,0-67.939,104.747Z" transform="translate(84.869 -103.288)" fill="#1654a8" stroke="#0a55ab" stroke-width="0.5"/>
    </g>
    <g id="Group_152" data-name="Group 152" transform="translate(-69.963 110.642)">
      <g id="Group_151" data-name="Group 151">
        <path id="Path_7" data-name="Path 7" d="M-64.181,131.4a1.674,1.674,0,0,1,1.684-1.77,1.642,1.642,0,0,1,1.684,1.77,1.657,1.657,0,0,1-1.684,1.77A1.673,1.673,0,0,1-64.181,131.4Zm.713-4.082-.4-13.7h2.74l-.4,13.7Z" transform="translate(64.363 -113.439)" fill="#1654a8"/>
        <path id="Path_8" data-name="Path 8" d="M-62.565,133.289a1.848,1.848,0,0,1-1.866-1.952,1.848,1.848,0,0,1,1.866-1.952,1.828,1.828,0,0,1,1.866,1.952A1.828,1.828,0,0,1-62.565,133.289Zm0-3.54a1.5,1.5,0,0,0-1.5,1.588,1.5,1.5,0,0,0,1.5,1.588,1.48,1.48,0,0,0,1.5-1.588A1.464,1.464,0,0,0-62.565,129.749Zm.97-2.312h-1.941a.182.182,0,0,1-.182-.177l-.4-13.7a.182.182,0,0,1,.052-.133.183.183,0,0,1,.131-.055h2.74a.184.184,0,0,1,.131.055.184.184,0,0,1,.051.133l-.4,13.7A.181.181,0,0,1-61.595,127.437Zm-1.764-.365h1.587l.389-13.337h-2.365Z" transform="translate(64.431 -113.371)" fill="#1654a8"/>
      </g>
    </g>
  </g>
</svg>
